# xmcd CD database file
#
# Track frame offsets:
#	150
#	59175
#	97830
#	158692
#	189830
#	243647
#	265820
#
# Disc length: 4420 seconds
#
# Revision: 0
# Processed by: cddbd v1.5PL3 Copyright (c) Steve Scherf et al.
# Submitted via: CDex 1.50
#
DISCID=57114207
DTITLE=Stockholm Jazz Orchestra - Homage
DYEAR=2003
DGENRE=Jazz
TTITLE0=Tiptoe
TTITLE1=Interloper
TTITLE2=61st and rich' it
TTITLE3=Thank you
TTITLE4=Don't git sassy
TTITLE5=Two as one
TTITLE6=The little pixie
EXTD=YEAR: 2003
EXTT0=
EXTT1=
EXTT2=
EXTT3=
EXTT4=
EXTT5=
EXTT6=
PLAYORDER=
